<!DOCTYPE svg PUBLIC "-//W3C//DTD SVG 1.1//EN" "http://www.w3.org/Graphics/SVG/1.1/DTD/svg11.dtd">
<!-- Uploaded to: SVG Repo, www.svgrepo.com, Transformed by: SVG Repo Mixer Tools -->
<svg width="800px" height="800px" viewBox="-102.4 -102.4 1228.80 1228.80" class="icon" version="1.1" xmlns="http://www.w3.org/2000/svg" fill="#000000" stroke="#000000" stroke-width="12.288">
<g id="SVGRepo_bgCarrier" stroke-width="0">
<rect x="-102.4" y="-102.4" width="1228.80" height="1228.80" rx="614.4" fill="#ffa64d" strokewidth="0"/>
</g>
<g id="SVGRepo_tracerCarrier" stroke-linecap="round" stroke-linejoin="round"/>
<g id="SVGRepo_iconCarrier">
<path d="M853.333333 853.333333c-147.2 0-341.333333 85.333333-341.333333 85.333334V469.333333s192-85.333333 384-85.333333l-42.666667 469.333333z" fill="#5C6BC0"/>
<path d="M170.666667 853.333333c147.2 0 341.333333 85.333333 341.333333 85.333334V469.333333s-192-85.333333-384-85.333333l42.666667 469.333333z" fill="#7986CB"/>
<path d="M512 256m-170.666667 0a170.666667 170.666667 0 1 0 341.333334 0 170.666667 170.666667 0 1 0-341.333334 0Z" fill="#f78707"/>
<path d="M874.666667 682.666667h21.333333c12.8 0 21.333333-8.533333 21.333333-21.333334v-85.333333c0-12.8-8.533333-21.333333-21.333333-21.333333h-21.333333c-36.266667 0-64 27.733333-64 64s27.733333 64 64 64zM149.333333 554.666667H128c-12.8 0-21.333333 8.533333-21.333333 21.333333v85.333333c0 12.8 8.533333 21.333333 21.333333 21.333334h21.333333c36.266667 0 64-27.733333 64-64s-27.733333-64-64-64z" fill="#f78707"/>
</g>
</svg>